<mxfile host="app.diagrams.net" modified="2024-06-16T05:03:23.218Z" agent="Mozilla/5.0 (Windows NT 10.0; Win64; x64) AppleWebKit/537.36 (KHTML, like Gecko) Chrome/126.0.0.0 Safari/537.36 Edg/126.0.0.0" etag="8yulKs76r8aHW0pmZlrH" version="24.4.13" type="github">
  <diagram name="Page-1" id="7XOGH98Las_Z5o6n7vdi">
    <mxGraphModel dx="874" dy="1911" grid="1" gridSize="10" guides="1" tooltips="1" connect="1" arrows="1" fold="1" page="1" pageScale="1" pageWidth="850" pageHeight="1100" math="0" shadow="0">
      <root>
        <mxCell id="0" />
        <mxCell id="1" parent="0" />
        <mxCell id="vNeZ-16SzhveK_JwG4CZ-2" value="Codebase" style="rounded=1;whiteSpace=wrap;html=1;verticalAlign=top;align=center;" vertex="1" parent="1">
          <mxGeometry x="40" y="-680" width="380" height="570" as="geometry" />
        </mxCell>
        <mxCell id="vNeZ-16SzhveK_JwG4CZ-6" value="SOAP/NVP Code base" style="rounded=1;whiteSpace=wrap;html=1;verticalAlign=top;align=left;arcSize=6;" vertex="1" parent="1">
          <mxGeometry x="50" y="-640" width="360" height="170" as="geometry" />
        </mxCell>
        <mxCell id="vNeZ-16SzhveK_JwG4CZ-7" value="PH" style="group" vertex="1" connectable="0" parent="1">
          <mxGeometry x="90" y="-610" width="81.53999999999999" height="70" as="geometry" />
        </mxCell>
        <mxCell id="vNeZ-16SzhveK_JwG4CZ-3" value="" style="image;aspect=fixed;html=1;points=[];align=center;fontSize=12;image=img/lib/azure2/general/Code.svg;" vertex="1" parent="vNeZ-16SzhveK_JwG4CZ-7">
          <mxGeometry width="61.54" height="50" as="geometry" />
        </mxCell>
        <mxCell id="vNeZ-16SzhveK_JwG4CZ-4" value="" style="image;aspect=fixed;html=1;points=[];align=center;fontSize=12;image=img/lib/azure2/general/Code.svg;" vertex="1" parent="vNeZ-16SzhveK_JwG4CZ-7">
          <mxGeometry x="10" y="10" width="61.54" height="50" as="geometry" />
        </mxCell>
        <mxCell id="vNeZ-16SzhveK_JwG4CZ-5" value="PHP" style="image;aspect=fixed;html=1;points=[];align=center;fontSize=12;image=img/lib/azure2/general/Code.svg;" vertex="1" parent="vNeZ-16SzhveK_JwG4CZ-7">
          <mxGeometry x="20" y="20" width="61.54" height="50" as="geometry" />
        </mxCell>
        <mxCell id="vNeZ-16SzhveK_JwG4CZ-10" value="PH" style="group" vertex="1" connectable="0" parent="1">
          <mxGeometry x="180" y="-610" width="81.53999999999999" height="70" as="geometry" />
        </mxCell>
        <mxCell id="vNeZ-16SzhveK_JwG4CZ-11" value="" style="image;aspect=fixed;html=1;points=[];align=center;fontSize=12;image=img/lib/azure2/general/Code.svg;" vertex="1" parent="vNeZ-16SzhveK_JwG4CZ-10">
          <mxGeometry width="61.54" height="50" as="geometry" />
        </mxCell>
        <mxCell id="vNeZ-16SzhveK_JwG4CZ-12" value="" style="image;aspect=fixed;html=1;points=[];align=center;fontSize=12;image=img/lib/azure2/general/Code.svg;" vertex="1" parent="vNeZ-16SzhveK_JwG4CZ-10">
          <mxGeometry x="10" y="10" width="61.54" height="50" as="geometry" />
        </mxCell>
        <mxCell id="vNeZ-16SzhveK_JwG4CZ-13" value="Java" style="image;aspect=fixed;html=1;points=[];align=center;fontSize=12;image=img/lib/azure2/general/Code.svg;" vertex="1" parent="vNeZ-16SzhveK_JwG4CZ-10">
          <mxGeometry x="20" y="20" width="61.54" height="50" as="geometry" />
        </mxCell>
        <mxCell id="vNeZ-16SzhveK_JwG4CZ-16" value="PH" style="group" vertex="1" connectable="0" parent="1">
          <mxGeometry x="290" y="-610" width="81.53999999999999" height="70" as="geometry" />
        </mxCell>
        <mxCell id="vNeZ-16SzhveK_JwG4CZ-17" value="" style="image;aspect=fixed;html=1;points=[];align=center;fontSize=12;image=img/lib/azure2/general/Code.svg;" vertex="1" parent="vNeZ-16SzhveK_JwG4CZ-16">
          <mxGeometry width="61.54" height="50" as="geometry" />
        </mxCell>
        <mxCell id="vNeZ-16SzhveK_JwG4CZ-18" value="" style="image;aspect=fixed;html=1;points=[];align=center;fontSize=12;image=img/lib/azure2/general/Code.svg;" vertex="1" parent="vNeZ-16SzhveK_JwG4CZ-16">
          <mxGeometry x="10" y="10" width="61.54" height="50" as="geometry" />
        </mxCell>
        <mxCell id="vNeZ-16SzhveK_JwG4CZ-19" value="Nodejs" style="image;aspect=fixed;html=1;points=[];align=center;fontSize=12;image=img/lib/azure2/general/Code.svg;" vertex="1" parent="vNeZ-16SzhveK_JwG4CZ-16">
          <mxGeometry x="20" y="20" width="61.54" height="50" as="geometry" />
        </mxCell>
        <mxCell id="vNeZ-16SzhveK_JwG4CZ-22" value="Documentation" style="rounded=1;whiteSpace=wrap;html=1;verticalAlign=top;align=left;arcSize=6;" vertex="1" parent="1">
          <mxGeometry x="50" y="-460" width="360" height="260" as="geometry" />
        </mxCell>
        <mxCell id="vNeZ-16SzhveK_JwG4CZ-23" value="paypal.developer.com" style="shadow=0;dashed=0;html=1;strokeColor=none;fillColor=#4495D1;labelPosition=center;verticalLabelPosition=bottom;verticalAlign=top;align=center;outlineConnect=0;shape=mxgraph.veeam.checked_doc;" vertex="1" parent="1">
          <mxGeometry x="90" y="-430" width="50.8" height="61.6" as="geometry" />
        </mxCell>
        <mxCell id="vNeZ-16SzhveK_JwG4CZ-24" value="Mapping Docs" style="shadow=0;dashed=0;html=1;strokeColor=none;fillColor=#4495D1;labelPosition=center;verticalLabelPosition=bottom;verticalAlign=top;align=center;outlineConnect=0;shape=mxgraph.veeam.checked_doc;" vertex="1" parent="1">
          <mxGeometry x="204.6" y="-430" width="50.8" height="61.6" as="geometry" />
        </mxCell>
        <mxCell id="vNeZ-16SzhveK_JwG4CZ-26" value="Pseudo Code from&lt;div&gt;SMEs&lt;/div&gt;" style="verticalLabelPosition=bottom;html=1;verticalAlign=top;align=center;strokeColor=none;fillColor=#00BEF2;shape=mxgraph.azure.code_file;pointerEvents=1;" vertex="1" parent="1">
          <mxGeometry x="324.04" y="-418.4" width="47.5" height="50" as="geometry" />
        </mxCell>
        <mxCell id="vNeZ-16SzhveK_JwG4CZ-27" value="Code Generation Module" style="rounded=1;whiteSpace=wrap;html=1;verticalAlign=top;align=center;" vertex="1" parent="1">
          <mxGeometry x="460" y="-680" width="380" height="420" as="geometry" />
        </mxCell>
        <mxCell id="vNeZ-16SzhveK_JwG4CZ-28" value="Azure Open AI" style="rounded=1;whiteSpace=wrap;html=1;verticalAlign=top;align=center;" vertex="1" parent="1">
          <mxGeometry x="455" y="-210" width="385" height="110" as="geometry" />
        </mxCell>
        <mxCell id="vNeZ-16SzhveK_JwG4CZ-29" value="" style="group" vertex="1" connectable="0" parent="1">
          <mxGeometry x="620" y="-170" width="90" height="90" as="geometry" />
        </mxCell>
        <mxCell id="vNeZ-16SzhveK_JwG4CZ-30" value="" style="group" vertex="1" connectable="0" parent="vNeZ-16SzhveK_JwG4CZ-29">
          <mxGeometry x="-15" width="90" height="90" as="geometry" />
        </mxCell>
        <mxCell id="vNeZ-16SzhveK_JwG4CZ-31" value="" style="shape=image;verticalLabelPosition=bottom;labelBackgroundColor=default;verticalAlign=top;aspect=fixed;imageAspect=0;image=data:image/png,iVBORw0KGgoAAAANSUhEUgAAAVwAAAFhCAMAAAALLOJtAAAAAXNSR0IArs4c6QAAAARnQU1BAACxjwv8YQUAAAMAUExURf///wAAAPf39zo6OggAABkZGe/v797e5ikpKaWcnAgIEMXFxcXOzr29vXNzayEhGWNra97e1lJKUlpjY9bW1qWlrTExMXuEhBlCWhDmWmPmWrXOWrVa5rVaWrVaELXOELUQ5rWUWrVarbWUELUQra21tUJCSnt7e4yMlEJCQoyEhBAQSlJaWnsQITprWubWrXtCY0oQUhBrWubOWuZa5uZaWuZaEObOEOYQ5uaUWuZareaUEOYQrRBKjJycnITmWrXOe7V75rVae7VaMbXOMbUx5rWUe7V7rbWUMbUxrYTm3uYZe+YZMXNjjHsQUhB7jK3W5kJKjDq1jBC1jGO1jObOe+Z75uZae+ZaMebOMeYx5uaUe+Z7reaUMeYxrea95hBKrYRKvRBK7+ac5mNKvRBKzqWl5jpzGTq1GRBzGRC1GWO1GTpSGTqUGRBSGRCUGWOUGToQpRAQpToQexAQezoQzkJ7jDrmjGMQpWNCOhAQzhDmjGMQe2NCEGMQzmPmjBB7rYR7vRB772N7vRB7zualnDoQIaXWrTq1WkJKrTrmKTq1rYRK70JK7zq17xC1rRC1WhDmKRC172O1rWO1WmPmKWO177UpWrUpEIS1jDqUWjrmCGNK70JKzjq1zhCUWhDmCBC1zmOUWmPmCGO1zrUIWrUIEDrWWtb31q331oS1GYSUGcWl5hk6ELX3a7X3EGNzOmNzEIR770J77zrm7zoQ70J7rTrmrYQQpYRCOhAQ7xDmrYQQe4RCEBDm72MQ72PmrWPm7+YpWuYpEIRCjIQQzoTmjGN770J7zjrmzhDmzmPmzuYIWuYIEGNCjIS1WoTmKYS1rYS177Upe7UpMYSUWoTmCIS1zrUIe7UIMealvVoQIeb3a+b3EDr3WrX3nLX3QoRzOoRzEIQQ74TmrWOEjDoQAOb3nOb3QsXWpcWlpXsQAEJCY0I6Gff3zsXW5hAQKVpzWvfe78X3/xA6MaW1nMWlvQghGSEIGRAZAMXWxQAZACkQKf/v/wAACAAAAGFRjjIAAAEAdFJOU////////////////////////////////////////////////////////////////////////////////////////////////////////////////////////////////////////////////////////////////////////////////////////////////////////////////////////////////////////////////////////////////////////////////////////////////////////////////////////////////////////////////////wBT9wclAAAACXBIWXMAABcRAAAXEQHKJvM/AAAoJElEQVR4Xu2dfXLiOhLAE0MpRNjIItg5AWPk8hl8lb3enI1/MklVEsjH1ErgJNiopZYsQ+bN/Lb21e4LGJDbrf5S98W3gvBpVhezqhI5o5eXl9tfTIgqLessiUnzmn84w+OsLos0les6ynPGftGtXFy6pYzluVzg+5tZUZZZzKPmDf9AEXEe12UqlKhayKUQJ5z/E2IkJKkrJauIpZVQNhmJdJX8W14rEZca9iZvFg5PXhWr9T8lbILEWZGPm/VyhY7S7J96gLi6Tucj1iyVDzQXac2bq/3jCym05ahZpD6Ioo7/rW8bXs+RG5iN1zdRx81V/yGJy8p9D4PJqzL5Z/zuiOJsFkZov6BV/c90kJDrUArhkDGb13/96pLrVDTrEZpcWmbNp/yVkJdVSF3bZfQ364You+lj1lp53eTl37q6SSF8vTE0eflXCi9J0mYBBoVW2d+3urzGBBQDQEfF37avxcWQO1kbmv5V8UiSzE8jtnu2879odUktVMbmhIi/xqPg9elUwgf5XxLMIasexi31Nd5Y8TesLi/c1pYKkaZFUZarclWXda3+h0oKz4XbddjsP7+60V2JXhOqkuiiqNfxoqsxCV8kWZHmOds0L7ZD0+l78/b/KIsZejXovKyTeMGJPjQbEbKQK3yLN5c3adK8979JjNQJ47yalUuE5xrxZVlUyPzQVru65AK4fX8YcfHW/E4jm8lNHeN/MOFZxTavzZtN0HR3WUIIl9xNkyRbL7NM/iNJ1EPCufzT/qJ/HLi97FWskoWbxxrFSX2DUQ+bdHpBFtNsdVuJ0WiU75mof4xyMRJVUf6hNWi8nDS/0QCrZl7uVJSUFaLkgVVlmVYihzQ/lQs8K8o6i/kftftFtV1uaV76/yh+Xdk/Yfx7e2m8B2P5H3o5ScvsRSqJ5tLfntout1UZXzWv9kEVmTVX6g1VhZTFH5IoIonV583TrPe2naBKI7FQaWVnf4AKTmx5SDp/DCAm72SN2tmQbKUjU337CrS4sPzkvAgVFozrsPlkmn9z9UAsRhgVjw/NS/sTXTuGHayMRfl9tQOxKYVqGvKrRzE+gIGD0kn1XesnE/Muw4pp88JQ8LoKqHl3bEX6LWPCxKxwhyguiGeBZVfBZsm329uI8SH9PUTuezpDBTFc+SW33eYTvguxybKn8+Brqzzh5+byoaHSz/lOwrsoDCFceh+6kpbwbN5cfBDo/VMfLzIwGYOjgbRah17bLM1D72VtaP5tEkbRwqAUaBVYbnkS5GCFBTrLvkd83bibBZbb6GQ1Unn5LQ7FmtwHsQy6N/B6frKCiPw75ONMgpsHLYNZLMtT1prQ6vzxhgz+wTTk2kbxbHMajfDBlq3ObJOZfLOQlZ1xiUhChGZy3iIesgQ1Lq0WzYt6Q/hTiq8NOYBSyij7Jf8r/7Pr5uAGLYL9Bg84fMBsvgy23cZ+li0T83R2W+4pZukP96s0qfrz8ASmzVgd6FuRpKg2l5iihU9YXlVFUdRZMo1V/cLVz6tdDcN1WRQqM+ywxmcs4iEryMWngdSVqgdpLolClZ+JIgODW+98sazTnKGPHW6rM9VVR8kcSmLn0yCCS+r5xOVZpvflcrrgxJS9Vy1gkhp99DC4k4kFtHFZEeILOfq6E5GWCdJCIYusqFDe3vhMssvBJzaEFUb4ysHXpawq48ih3iSKeDZDqd/xOfQuSSC5Ylnzkh7w2qWLQF5cu7e4UBVoKWJ5N9Xp7d0Y+mK0v+DKpxa/tDT3bs4SJSUik0xnJ7d3E+hbib6PEVkUDvsYq/pkvggm0jY++TnCuvnkLrTouQEkLr4uTV1KfXXIfdP6lLDbh1PaDIRDYQXRK2lG+NLB190EySiS2qob6AmjOETdbr2RS3sl0qPExdd9LpMgKQNyV9uMPvHYvHZYSFJLTx30ItmyeZ0PUiPgxdZ/Hzvm55OtD8986KwwITzOytT0DNF7752VxJlDHQ2dh60/4safpRyjgTe1+FodDTMuQH7te4PJ49xBI4hV0PIzCc/MLjEb8HwxiesiHVl/feV5f3lWYN19SV6EKPbt8G55cEQA30gL55nlsWlIvY48yDuHb9mypaIOV5B6yNRcCVsNkhImUqxwj+zI6+5KXxd15/YM17AtMvfgYKvwjwvP0Fa9l6Mor+/g64r0aUB7npvKMH7nT83LAkFIUuD3GXelHxGnji0sWPU/wJWpExq9fWleFoakcKmRf3YusUmKOf769D4bPKl1ZXqMWBnu4+U+41bBLe6ad+KQlq1Dfyw6P0mu+6dJM4yCfQOSVAy9hys2qZPGJ8nMock2LabG/E0wrgyry8owexrJEGZtG6cCJqnMHVINeXG6AyF3cOjodx4kLeFTYyzwyTyycPF1mQgkMTiSFM7lpwFCRV5d11K0ISZvHcOXwIj6blgboUO0hoNk/SKqiivMAfFjUuTnuvq6Jy84NJzAp277yhGEIE736yiaC5h5iF2KQdlZOmFGt6DOypNe2yq2U80RqMXlKydf9/o8p2vuwPgu7XNkgiSYfLMOVjeXMCA1Al5sqZgtT2J9HROBJfPj3D86RrK5ZyPGsTUmF0V3DhrhN/Pr2BIGAn/Tme+34g6xvw40tT4vjw6+Ljtzw3e4oMi3fIz36OBuVUYkwZvOVJy9OWMGCYJnxse1EWML62cmFfqhYIV/hCaKyAW56G/qw+HH3OO+R3e3iOZVIDa/m9TYzC4rMv8CIqLGLwZpXXMHuRIbD+uQm07x2mHm5AtaKTDhH0YgPCtTkU9yMUPXk4KAdS/P7noBrxP0n8lq44lkUuKOmoseWZwoThnbHS3ZUpr31toxEBAdO2ez7pBrm6e1/pUT88PCUR6vKPwdMrIs5ofPnqrZbf7kSQmILi2bFyAx2HUH/GJVvbiItetkyfFgFlde3X9pNecnNj0nK4KazC3AgGs0nktFJr/sQvtai+RO7TX4osdSkCydHHs/NL/vk88kUHvKuUtJCsnsvgP9nAAZaxfXIrm2Dk7y8j38yqQEHEsqyh6RnxdA5Fyy7CSprD4vSz/P7ekL9i2Sa+5HuH1L/U8AqZqS5joaVC8+3+V9ANw0ig9dm45CNoyr68Xnj4+1i2uRXL2ibniTytF7baXLbsz+U3bjK7zRI/CtGTrdw1NbsyPRKjIOLblyW/cvCOBZYXV9pG7wtHr57HdzjTYbbNNPUtvktlq2vpqXzp1Ckvu7h68bkbsyR0XxpGfiJb3A2mBrvImhacKOox8fVHLZ7dqt2uEQh14BeeWV5FzqvzadoZ41Ywsgye/86EuF07m/++R1pWVr1wgHvN166IaFNnXwSgXKxLN4vbRaH61ZOMmVlq33Pkakr2vTZ21oXt65fhwHOlrnqHP5ZqVwYIB9EUrnym3Su0Fa5FRl9kE+d+2G+Q5YOa+IVDcxNgtU6rZ54SFhJJelvgaS+tpuvQK+YEXi9rBwwAWu7F+ez0x77bG63eGlc7uSm/eIfpH1vUOVWYsxZanTBxPgLs6tbkT0ZHq02Er/1AaRXOG/kblM7NHwpk64N9eyEwFRXWFtCvyS/mpeqwF0oL10bld3IR4rLdLXBZtoYFFdw9Afv9TrhZFVqZlqUXMw+B1Ecud+kit93QCz2zejGdZ/jaapVnPmtbkk7920mzHYB/HSud2o2NzHUOC1T4GgDlqVyKoIrg+Z2/Kx3DAF6rmE/SY/ye28af6z+QMadX7CbJOzyqWkGKkbgOiArUmSfpF2bG4MOt9P53YX11ktxKXZshVlMk0ckqw0F+a0X4O+gIFWxh0NkPcdlUklBZFcx7OWUbw2HzrO091plxdM749P8hrhEa+1mdXxyKi1MwEWUOfXJmXtZ+d2JddJ56oTVaYnflNlV/uvHN25jMbdipVVNwA9Ueh183cdBK5mtHQQDaNzHSSXJDOzPFb1QR6DJ0611Te2MglgcbemrBSc1LJVTwfRuXi1YPN1pUbolMaRzKm3kyWSDkQXTJJriIbZEkRhJBerFojl/ASdHa+N6smPtxt+MWO0LJ5rsxHUILmw4E4eTQpX4mfn+kmuOtRtcshYWmp3bZKUDrqB3RvqRxb6DOMWrvUmK+jOvt3aQhKn07kqr2uUWlHCX3Y5d/Dl3tIEmuC40M9TofDiLsCDoSK2lcoH0bkCoRZ4PTee4cwLk7YkPLFmtb9QtWX6JxZQoGNwceFO7ogQexDJtasFm6/L7B2EYpeORLt+kM0bD+G32rWCJReKUqKaBXrp3CPJNXf7IMQy9YzmqKqX+Nahcw6913nEV/qiJrAaL4JysZeYw62nkNzY0otA1Li4S8SX5oBEi01eHRckAAONKdRqDEq7XT5jkrFeOre7uD9MHxRnxoFnqjcmaml3cKde/aLsJvauVtq3b1fN37vE0KnmOSZ/F0ZyQbVApENmTJnLp9fpeHMkZU9fOKODVY/tLBuwoYFORAZswmNUz+YwOheUXFt3kura+Xwad7F65XPRkhNe6CM30IZWNi/oItbNC4wMqXPVWGrTDsRE4XUM7Mqp23FLNwD9FyAPjRfNCzrQW4TG9dS5XcnV6tyILIV5TkzlmBn/gl/jOzxQmn/Vli307wM8tHdoMgmyy+VgOpdkM+2lD+jRl87NI5Z75t75ewcsK0ByofMPY+TpNS+d211ccSSB5hrmD/Jyinq8dETrysHqVfUj6l1QPFdvikFnP7BDZMNIbtf9lb4uZoAOZcK/M13EsxSfl6diF85Z6p28kb6FGwdUu0DWSgwRz5W/eoT92flN88T64DShiqlB1rHeEgN6swM1p+g2KkEk9zAqRrjjhG/W53ykJWPUht0m+q9GZ9pvAFY749qoeOrcIzv3QC3wYuS0tmr+cY/ZGDxx8Ijfcr1Do69RlD9Ff+PQLTDC6NzPV8eoWRhdevXZj536nmqZ6Deo6b32t+CbtwSJLTQemurE6fk7NzdrYvxIA++87FkVBXSoA3xfy+IcEEZy94ubFLn33HQq+uiGpYvVewywnwEJngm6WU8YnSudCOnrGjUCFUVhdKvwFV8a3HLEXYT+OQcCCznavAmkcyP564zWF00TQsy9rrd9ZshKq9chR9wBiI0AgQV8NXIQO3ceL1NjDbPcsXaVHjwzK+WRtaoDRj46+L47bfT1xUSfmnQYBhVEcvPC+LOY+Po+vDRbavnKfWDXB1GW4k4JdhgXWiUK5H0d+rN66dzu4m6Nvu6kpUst813GtIdH/P5z7XN2RejzuIn+WnP8ZPQgkmsiP+opZumkN+4zSyZymmO1h6b6AlLgRpnLTVsE0bkw+lOVxDKpwlbxZcTJI1ZAShSI6zl0FhlWchlwhooszJsPy62lQjBOHrGEAQk0wHbWxyG0BNG5ACKFq73VhOXmZVrebmr849dlUeNmuOyBcjyA8nIYwDec5Nq65ZKkMmaBqKbiEQ0v8boBOoWW6hfXoZtTkNiCBmrvlkt4NjP0JxvTPrP9OLptMniUp9KH0KASBw1+kmv73qqdR/NaI7H5RDWtkLU4OrA5YgF9BPDVXCRXu7g9JfftHr0m5m71Y1otH3yXV7nkCN0AtoXP9YsLV5seMYDOpWn21aDIiqX+i4oejc7JtLR7xPQeCM+O9CG+c+pcJlwbgfPyh3FvF5gzUAARovX3+Eb/hZl+QzijzlUNPFyTCpGlh59Uvd7jMqKf6x/NZUCAFBpgbwyuc6HQ9G4OhPs6RA+WaHdfj7i5DMRGG87I9Wn4wXWuXtBYVYJOgw3lEZt2n+NqUDxRZos35LrWYiO9WjiPzh2t/PuFyBW4Wpv29vEz0OoEQ8T1ZbmfjCuNeQPERs+hc/t0y92j5vybhHeS+vfQ5ZbqKqZxaoHi15PrXMr6DxFSJGbd8CY9Yt+PScw2LztW6oAuObXk0nsXy9ZAtLBZvbfewmtp8HBc6XGj31kG17kdyR2h6qxxGDucSuGtvDW7JdpwNAp41ntxg0iubwMhHUBa8AsGn4+0YB5LclQXCliHBd5qCRJbCLm4kW1xLzejCp/GakGM21q3NARYXGyJoySM5HobSceARxYPmXtGy4yuYLfTTa3/Jim+rC2IzrWcoHQhskuu5FV6xF7Rsivj6rbVKZD9NXa1afPtdC6/aS5qZts5A4XFOOahnXuc6r+JeER/bhA7N6RaQEmuYitWPtEy0wj2ScsJ5Ppvwkr0cxpGcsOpBbApvga/yT+GUcDtGVMP+loxOkd3tw4SW3Bv2gZjNcUOydOVu1MBj56TWvdQTIBCvBx9eu7bSe6RtcCMHrHPiQq4hzMVh6f3gBJSht7RvpvOPbIW8to8Ib85A+VCBA72u3w9DOAA3fm18UktgSQ3SGRhR/ehFbE9WubaX5vo+4UoDuugj+JTe1CtFnYEsXND6txo1ly0YdeRY2qu/3KOlsWAOlVq5mvlYuDACdrS/fbWwm5x1WlJU4MbKoBKRQhQ7dIDgwGw2sYTbKYnSGzBv632MV1r4aOXzIulNtSpfiSCmy5dfv10Aulm7CE/SHKNSnRID61rLXw16okLatINtFo3/TUxvED22OEpM2juG3YDB3SuZXE7OtfY48aRY8n9/Cp8aYzI0pGLR3wNLJzUup8fuNDvaIge53sAtWBuhTyk5HZjC60WU2qiV/PvdbjUlkFNQA5jig+AEbhBFkAv9DdQnWyChbcruSF17pGd2+rUEsnlNemGLX7i1BoaTvBljUGa+XWE2z6hoR+buaFOcUhrwSi5kqukhB7oHXmq751wxB1UIJ1/PfQJJLrmDf8D8ObIZwwcFd3dBec/jSraCbPkKmynJUdLVCImgrJ1m+pTdMEGQrh6uHcgJCzZTqRuaF7W5pySK1EddZu/6njNce19IuiXs69E8Kr5V10YLk0ZGWb/UaDSY0Cd+37soWmeClX/ZVC96QL11D5CD8CXvZBR4NAtMpOW6J28hrmu+v48dm6LKJnB0TKgf0KXBTSi4KuQP4YOFhwoZhPvU9Mzpu3xcyY7tw1PYI/4S2saAXo1HaTJogxolkjvF7j8/voG+JA9edk9A3msc8NtaAid+0G8mgNyNYHuSJsYMOsOJH8BSN6Yosb/SSzGI83LmBzep2NroflDAOzWwhcRB4agHMa2DDwAueDxl39L7gGlO05xT8fOeATskj35vPVtjyQ3oFpwkFxJrG98yXC9FiNouv3XDh2B8TOkYleQR+BMW8Mkffy6U0fxXO+65GNcJFey1urEN6RYQQm7gzu6AN1koL+IjohnRuGl8gt/eMRDSq42ngsCZGzQDZSgHOSBLXANaUx8lyaJ6sjavE/LRsySveY9snNDJiidJLfv4gICdZjJScAGGW/YPW1HtE6N6ZQPj/hIckOm1p0kl+h7ijPs4gJ92TYHaoXAtZG6Yn+YiCTG895jdq8emAEl9zj7O6jkQsmG0ZcHHEFRXXUPHfVhXBvHMdB5kUTdIHBQayGE5G4so/k+gUYVtHq+wrPmDPMnAWLLtNh53TUPg1oLmNjCJ5DkovOVUBfXw8BMAnf1Yg6n0nZEfGoc1bJ96/6g81kLoM7FNhqBapsOc5DkEV6OkXuhMC/NVm+Hs8QWdgCSu0FL7gNQH9I6OjWFZ2pTZBijBTdXubQZslbMS3Kf0ZJ79ajPa7TmyBFDyTRFTx0+ANd1fM+wdQtekmsdp/UBqn4cKNXdgYxjdCAZcFjoiPPFFsijfkNDSy6JO5/XULVPfwEW245J+eJxugjZaiOsznWzc4k+3urgmT50rJOGH20zwDT693Li18MP2XzyTPFcCam1IoX20OQV9OGFeecU6qICZ/8q2fXY1STR0719ZzsaZdCDd0c7t6/kAiXO4rb5cwNZmRL6eel37jCSHrHJZVPMnW09GFdrQb+h9V7cfNb8+QNAfTQw777VL7YGcw5dT6104xaDS64+e55XzZ8/gYv9FSz1bjYRF+Y8kKj9u94eQuLr7mMytM69WGmVKTtaXMvqUoGu5u9CzAfqt3J5A6yububy4JKrt7KYaP78BbH03+yxBLFFN+SplzF9gJq53FzsgMF1rr40hP1o/nxADAzl+GBTeKsGdSrZuLy0iL37eKhnQz9zeXjJ1S/useTKD7P4rKy69l6Ah9icI34b9WlCU+kraAbXufrF/ZU3fz4ETgV/0KfTD8lS4/KyFOhGbIFnBWRGDi65XfNkD2XNn1sQi2KQCN24YSTSI94YfBUpM4nrHBjzzOXBdS6gFnSSq9zg5u8gvsfpd5CpJQWfQ4WnEOaZy4NLrn7oGbC4Fy/m0i/FWPRouR5J3WB6OsYup5aiODNPqB9c517rr6CxFnZMra0hL1+VYeovvbaR/diLR8p+No6dGV5y9fXJGidiD1QB1YLmamygL9KTMj4eSMWTFMIWtxhc5wKxBWBxbY0LP5kUTz5h3j22PJBd8ZDpI2Iy3fCS27ynTZ42f+4Qm+c7HUDz4qV5kzvyidb+sA+eze5gRJ4qChXFHzC4zgVCjsARVKheWgerSrcTyYfYZkTlFexUKIsZNaRoaMmNgMUFTpRcQ6fXtKgGc947G781e8Sqj4dubTg++zm0zv2pj9NW+moPYjieo+OXXF7v1X2wrJK0eo97nEUP0tdFia1kYMl9v9Indivt2JMIaMFg4K3PgMIHi0e8kVZv89IGnrlUnAysc6MYSK3rteV6jt3PDujjEdu6Vm/Sw4vbRo90j/0PLLkRcF4QGLNs8NNhpNXbwyOOr4GKqz00n32u0J1l5rIo5+3QxcA6F+qQV+iLiHymGitEM0jfByK9AePHSsWjLh5fz4xLK2/xS9F+8AaWXA4oUb0l9tMoRCZ6esSVcVbiTvEkM/a7+b86qHx6oui0dQv6Zh5QC+L/eS/uJd0N0vckWjymRhswr26Eaebydt+31bWyvKfkAsXPr9rO5NEUa0BqOT4tiec9Lk2xQzPSWXzarWKQihu0zgVujqaDuSJa9lpcuVkX7dOSLhD0ELIurHpqejacVnJ5qQ0cUb0lBhSsOiA9YuwzdYzNI9ZDD3rauVaW99O5ib4EDCgLhdrDMoeRoqxlmDrCV666QVlqzZslrvW5/SRXf2+gEiIgt05Ll5mXvQYUktjUuvoYVraqdU5aKwaUOEIfGuvNXJZFcY0rtt1Bq8LfI9ZXd+jpzotyPofWS3K7u+cHub7/cKIP5D2rW5HMHHTDuMpwzUx0EOkRYz5KUwUVRHKROhdqCQCVygN22/OuCp0nM2wwSv5wJvyLF1VnS7sayuu462WeVHJfAG82/2py0yLT56RYc/9jp1HkozL76Z0Hsmby8vRaIyCuJyj76NwEsKygHq4ZcC8+Xv7OawfdQMXKVzcQqOHZni0F5lC5nqDsIbmkBrKj0JHeR/1zf9B4gScOlv544ucRR+vUaJH9Bmcun87OjQAj9/KyBh5XveSOW+f8iFu0ushQz9gBZGq2TOgINvVOaOeWQKjjoGlbG31fi865LFu7yQ4Tt7pTYjthZcwrnczOjaBjv/Cd0Z8B3rROW0qkbDnEINjcwamQS2uu8U9NT8LprIUr/X2RnwgaSSvt79KchY2yymVnS5FWr9ToxrvGRGHO5QexFjA6N4FEAG4MpFcLG81xzYgsHZIWcNfMFrwcGa/JpONnkkT5tU5kLQC3RQIftq31Dpr2LGwk9x1bqdYXG2HNES9q806Zp/ZocRBrwa5z4RL8CTzBE5DcG93iSqaW3FeLV7ijrsJm4+m6Qh5zImuBgHWahrfqK0K2FdDWUeoGSzXoIZTN4RxxbB6UcSlq1Ai808QWCHi6gV43L9EAeGhz+MPkswxpHw1ipn+y49JSU6qmsGM4jeROIWNxPDLczEd9RYjx/vPSwW5Q0Zau9BL+dGO8AhuhY0AnyaFBcVz5TU2qC5Dcj8CNHm45A9WGtbtmyq+apGYboXI443MKO9fQVuWHaaGAlhbmxVUf5+gRfy0vSSwNYl08kECSa9a5RH86SkEL060E3vds7e//8OiQqFBTOvYnosjV2hjEpK41lCeQ3BjouisRUFhhBxBF3dgb0D9ICWxejUB6Wur7qxiQUWwRlm2b4XUuKYF+0fLrmreGhd7rsrxrT7Q2RwXajO+zJDPfDyac69Zx3fY/8ZBcUsM9P8TU9GEXsb7S7RnVdDC6SlySmLkwWxm0wA93/mRoOxe2cOVnWVaJlNpbOZ4hf+fUyeo1gbZs2wxt55rOf1aWcg3AysCP9rONJETCfnhmN4eN5xoMBblItq6X0LtzfJdiS1cQFN7VqNGwOte4tva+sMA4H7MB1yG+Tk3Fnlb61FEPGs81ngkX9ocbSl64jXjht8xbelnlqREkEc86e3lAyTXqBPke+7cmQLnA3E2WeAy36jbTs1Jn0gmOhNO5lj4fmBbZ70BRjXMXXbcccQOt0rWD/mlztS7mR3tpMMm9ejTJ7Vhf7twBCkp4dCIl2fzZ6djVmPWrjtT9+kA6l/CV9jZ8gOw7BzSEpQh93UX+XkCDa+lX11vqZ3cGklzLKfB2YQcMMPrgkmLkvk0kv/zMHE38gvapSF9kBaCDguhcy8BrlKWwAzr7u/XawyN1Bqq5ghEVJ2ve44w6SwF9SADJfee2zRk9fwuKl1+iZ0y1iZL63poj9vR198TlHLb7+utcuTPDl9/BVmi5gA5L2cISMJY+mb+ZuW+FEdVByPTb+0ouor8yxsL9YAHpF/9RkSSBVKKix8lLqXVmG6Pa6adzCamF+WSnXFvsOBQFAbrzS1MXq1mOgSvFpa/rfdOidWHT6LnRboYkt1GB8lubjNsddO6yLBE0sdOv6f4HvNSdN+/V/w1j6QljrBTSucXi4uLh5cn0vH1QLZ1ErhsS/eC38ySZFkTjEffsXGi0PfeY1QKocxdy3dMczOd8Ia4dH2ew7z5wkAKLfMoONQ6tCre7fghPClQHIfOAD0hyb8oyHaEun1kKA49I5sB1f/irxz27M1Dq1m2pyut6Ly2Jbb1oPzB38ofmREyQAX+PbuuQkyYVfR+tqyCLrEznQlSz2j9mu9PfuF9v6QQOSO4lRmglonaVW+mSLIGd/ZL1MBg+INNllj35+2MXixqz0ez5msytBd39T4ufeQ71v7h8ww3ENRJJmv/pgbRsHbJIzOLz81unJmptPJtgg12EXq1JuKEx+rpdJjaVaCiesTH2bZlEgG5ZEp/haMFQcyDwS0uFNZ7i3kTtg2f/7TgCayQ3yr4+D+9kOkPuYwpMlRloF9mQlrC/boPzRbn3JI6ekGVq7Zb7Bb2/Rjxj1+idsU1fZxUSkS2+PiQkZPpoi04d8JbPUFVmjn0rG6h/gHAP0BtA4hJhCwbP5sYu/W2eiyluxBqo/UzQ+76+1BV8kKTfM+GDS+8QFQy6RvZMhsvvDeRl70eXLOGncOIfyfJBdcvFZ5HpHG/aQxUwBqjhQBIeYpgXUZ1yU+O1eMPv6aNVgh90C2S6DeRlD9fygGUO/iR671E560fseNri0UFlmebxamGddkX+PABBDcVmFuYGWlBzIPD7+ZbmtdN4Zu5WjkmZS0LHTAQUPO7YWCIiYUiKuYN7OnedmgSGULSI0kHh2DGFjPrUGeCIHH3d1Dny7jBXgOapf+2lFjCuq2Dl3ZB6l5AktUyGOcQn8k5qbEhs+yZd6dC/1liQ+oZzgvx4T2ZOvm7mscMax0gfIkrjcXtPwFYjO/rkacw4zIGQUFv3EACU9Uxz0aMdu5Fua4g2m6qvH6iFkEx0m+YboL6WC8Y9Y+rc8VDqz9yrWHpD4VeXZ7P8Eh1HyIvaMwbKrYGgPC2z6TBSu8dcqy49Fv/CAy1uvi4T3nEO8yxTynJpH/SI2aKwGdrMs/gRgK9cNIJY3XnfWpMptBVFnfQZlItlAdTffED7DJ3r4Orr9qg7vUgA756O0ltpHZzCR5J0Dx8dkbd7L/tC+NQlXch+PPZxmIi+g5p8GvwHG3sQQdXQn7Ac0zfJRlyMELVZHwi/CcGfQAGx/nUvbiDG9cgntJ/qJYlLjzJp2SbejXl3gFPlt6euHSAIV2bSZ1I6uVq7HHZ37R6iAQxKvbmfq+nJCyLwx/znhKt9zP4BH9CZj6/bhkPtWU+tFRQc05qNSh/cXaR4UrskyOSHBLD9ljngpQD9pIclThGZlu1vdpNxh1npRM1JdzFsA0U6Oej5+p/76EOCazlK8yqtsZYZT8pUTFyWVmqE5r19IOC5sm1xlsV9T9BlVcolV/6N4XtKiY2TunTplqW0egiLT354DFruwtriayCm6JaY2zeWV8rLIReaBY6iB55khWD7GnM0o56W7SfAKCgJLX82rzk5+NWV0ImoqllR1HWSxPFiwe+4FNZEimuRptXcPElSQ96je0iHGtrNrOW8Q2JM+wCwUZXO5CIrZmn6w3lVd/TpHtIBGiYrodXZKjjVCWNsYuQQSjeUbRh7o4xu/Co2RY/uIV0WcNWo8G+kEQLuO2qvB1T0OAh4hEk+UuPJn+GJXItU+qISrwHlCTq+o0B1UhmUn0iDNxBvaa0dZe8JSQQ43JaepM7FyPuF8QR6WHp1D9Fg7KwBz3c4JcQl790DygpzV09XImBO4Q52fsHdwROXAKEvrFcWR4NcW0PI+JxmWBteOnTK9YKJAOcJW0RA+9o9/U7kh4UMvK+JoPuYgsQmB/PtmyiFhoVLDaIjokiCm5yJsXuVuRXOGYiLfJDlZSGdhgaeGFN0tGcniQF4mN4OYJVtbsJLEXk87vJ4yPdSCg1xNgu+s1HRqyBBR1waay/o9zBxj7lauyQXcYQ6MtNAFoW5yjl/DK6GAhHdLZ0mUmJgIY/AkswyGv/tNvSTEhK+LO8Dr2+QHO8O+2yQ+zOGyDG886eUUVvvOBfUQMR+RTUKQtbmeVUSc3Osb0H0kmSOCUczVNz2/9VxKmz1Z/k5KhU8IOvbap4H29+kvdtrY+OJeTbzDnAC8veDEFVAk28R64t4yevbvX/HPMKzObXWqLOenRNOTMTjdV2XRSVA/42qvmJljTgcuhFp7bWzRUlZIRwcVp45s+NFxFUWPRWSvIX8F1VZZ8lddMHtpamSSXGdOKYnySLJUHElWtw1b/nTIFJHXHF+p6oVkmyZLZNkGi845w8/yb612J2lE/geytxqFghfphNUmvm7xMd7IpdS16ktLnC15FI73F6jKtB4spph+wxtwp6V+XZMZ7h1uLwcS+37ZKhAU89JPM0sE24Pobf/7bWVsjtDn4PYPE9y4AiTWthlPZNbKL7vWOgE3XfEcb4X21eglaXcFLNsvcweV2V5WxSpNLDR66pg/3m5VSz8injkNjfamSIOPfIOOH2HqfPAV36Z+le5wq9eKyt93vpPtG99INguzsHATxf/8yFJhT9L3Z/f52mYeC6i+Nbz+fZABTObz/1L4EFmriKggQ5W/FGQtXefYCeGaW7y3YkSVBynH6LHqMA/G1L7HZhAswl3suLPQw2Na9ZhCCarE/T++MZ4jVzFMUqzsx0y+y7w2lJl4AcbqjnYn4XjyFUUmz6Tmv9bqCRySOnNq9V/P7qIJnp3bBRggKoBl/+WtgWPH4McGsoH6XH5x/POs5no5RPTfB6w59l/DEIW9b1Lr4sWVPV0+ye0Bh4WWV147G6TqqiX/5bWDk9KVb2DTOdQNslFFaZH399ARB646tmCEWDVoWTK/8msA9KUIndJtu8yUgklx78+SmooY6pIqkrToijrXe+Xf3hB+GKZySWWemK/06k+tyrZXmfJ4jtpgouL/wMfkP0Axue4yQAAAABJRU5ErkJggg==;" vertex="1" parent="vNeZ-16SzhveK_JwG4CZ-30">
          <mxGeometry x="25.289999999999964" width="39.43" height="40" as="geometry" />
        </mxCell>
        <mxCell id="vNeZ-16SzhveK_JwG4CZ-32" value="GPT-4" style="text;html=1;strokeColor=none;fillColor=none;align=center;verticalAlign=middle;whiteSpace=wrap;rounded=0;" vertex="1" parent="vNeZ-16SzhveK_JwG4CZ-30">
          <mxGeometry x="0.01" y="40" width="90" height="30" as="geometry" />
        </mxCell>
        <mxCell id="vNeZ-16SzhveK_JwG4CZ-40" value="Azure Open AI" style="rounded=1;whiteSpace=wrap;html=1;verticalAlign=top;align=center;" vertex="1" parent="1">
          <mxGeometry x="880" y="-680" width="380" height="420" as="geometry" />
        </mxCell>
        <mxCell id="vNeZ-16SzhveK_JwG4CZ-41" value="Jupyter Notebook" style="sketch=0;aspect=fixed;pointerEvents=1;shadow=0;dashed=0;html=1;strokeColor=none;labelPosition=center;verticalLabelPosition=bottom;verticalAlign=top;align=center;fillColor=#00188D;shape=mxgraph.mscae.enterprise.code_file" vertex="1" parent="1">
          <mxGeometry x="500" y="-510" width="49" height="50" as="geometry" />
        </mxCell>
        <mxCell id="vNeZ-16SzhveK_JwG4CZ-44" value="" style="group" vertex="1" connectable="0" parent="1">
          <mxGeometry x="570" y="-630" width="130" height="70" as="geometry" />
        </mxCell>
        <mxCell id="vNeZ-16SzhveK_JwG4CZ-43" value="" style="rounded=0;whiteSpace=wrap;html=1;" vertex="1" parent="vNeZ-16SzhveK_JwG4CZ-44">
          <mxGeometry x="10" y="10" width="120" height="60" as="geometry" />
        </mxCell>
        <mxCell id="vNeZ-16SzhveK_JwG4CZ-42" value="" style="image;aspect=fixed;html=1;points=[];align=center;fontSize=12;image=img/lib/azure2/general/Code.svg;" vertex="1" parent="vNeZ-16SzhveK_JwG4CZ-44">
          <mxGeometry width="30" height="24.38" as="geometry" />
        </mxCell>
        <mxCell id="vNeZ-16SzhveK_JwG4CZ-45" value="Code Examples of SOAP to OrderV2" style="image;aspect=fixed;html=1;points=[];align=center;fontSize=12;image=img/lib/azure2/general/Code.svg;" vertex="1" parent="1">
          <mxGeometry x="188.77" y="-300" width="64" height="52" as="geometry" />
        </mxCell>
        <mxCell id="vNeZ-16SzhveK_JwG4CZ-46" value="Azure AD/Entra ID Auth" style="edgeStyle=orthogonalEdgeStyle;rounded=0;orthogonalLoop=1;jettySize=auto;html=1;exitX=0.5;exitY=1;exitDx=0;exitDy=0;entryX=0.506;entryY=0.043;entryDx=0;entryDy=0;entryPerimeter=0;" edge="1" parent="1" source="vNeZ-16SzhveK_JwG4CZ-27" target="vNeZ-16SzhveK_JwG4CZ-28">
          <mxGeometry relative="1" as="geometry" />
        </mxCell>
      </root>
    </mxGraphModel>
  </diagram>
</mxfile>
